/* XPM */
static char *_78056355fcd4c9db1b5bfa7349fa490bnUUjJfHADlUSn3g[] = {
/* columns rows colors chars-per-pixel */
"48 48 210 2 ",
"   c None",
".  c #18181B",
"X  c #0F0F12",
"o  c #1D1D20",
"O  c #222225",
"+  c #25252C",
"@  c #29292C",
"#  c #2B2B33",
"$  c #2B2B35",
"%  c #302F39",
"&  c #323136",
"*  c #34343B",
"=  c #39393E",
"-  c #38373D",
";  c #353544",
":  c #383745",
">  c #3C3C43",
",  c #3D3C4A",
"<  c #3F3E55",
"1  c #403F46",
"2  c #403F53",
"3  c #414045",
"4  c #44434B",
"5  c #4A4A4D",
"6  c #48474D",
"7  c #454454",
"8  c #4B4B55",
"9  c #454359",
"0  c #4C4B5B",
"q  c #484758",
"w  c #504F5E",
"e  c #525255",
"r  c #52525C",
"t  c #59585C",
"y  c #717B55",
"u  c #4D4C62",
"i  c #4C4A6D",
"p  c #474564",
"a  c #504E67",
"s  c #545363",
"d  c #5C5C64",
"f  c #55536C",
"g  c #58576B",
"h  c #5D5C6B",
"j  c #504F73",
"k  c #555374",
"l  c #585774",
"z  c #5C5B73",
"x  c #585778",
"c  c #5D5B7C",
"v  c #4F4D71",
"b  c #605F6B",
"n  c #605E7C",
"m  c #605F77",
"M  c #616164",
"N  c #65656C",
"B  c #6A6A6C",
"V  c #676B63",
"C  c #757A6D",
"Z  c #636274",
"A  c #65647A",
"S  c #68677D",
"D  c #6B6A7C",
"F  c #686775",
"G  c #706F7C",
"H  c #74737D",
"J  c #7B7B7C",
"K  c #737375",
"L  c #7F933B",
"P  c #7C836F",
"I  c #95BC09",
"U  c #8CAA1C",
"Y  c #96BA14",
"T  c #95B816",
"R  c #8FB210",
"E  c #819A28",
"W  c #93B225",
"Q  c #9CBE26",
"!  c #8CA534",
"~  c #92AC39",
"^  c #93AF30",
"/  c #A1BE35",
"(  c #9BC406",
")  c #9BC30A",
"_  c #9FC908",
"`  c #9EC512",
"'  c #9CC01A",
"]  c #A1CB0A",
"[  c #A6CC1C",
"{  c #A3C918",
"}  c #9EC021",
"|  c #ABCF2C",
" . c #A6CB25",
".. c #A8C937",
"X. c #AED135",
"o. c #AFD132",
"O. c #828F5A",
"+. c #8A9959",
"@. c #819445",
"#. c #91A745",
"$. c #92A943",
"%. c #8FA34E",
"&. c #A1B952",
"*. c #8B9769",
"=. c #858A7A",
"-. c #8A9279",
";. c #9CAD65",
":. c #99A674",
">. c #A0B263",
",. c #B5D447",
"<. c #B3CF50",
"1. c #B8D556",
"2. c #AECB48",
"3. c #BED867",
"4. c #C1DC65",
"5. c #C6DD74",
"6. c #615F81",
"7. c #646282",
"8. c #696684",
"9. c #6B6985",
"0. c #6D6B89",
"q. c #69658F",
"w. c #706E8C",
"e. c #706E85",
"r. c #747382",
"t. c #7A7786",
"y. c #7B7A84",
"u. c #74728C",
"i. c #78778D",
"p. c #7C7B8C",
"a. c #777982",
"s. c #6E6A92",
"d. c #726E93",
"f. c #767492",
"g. c #787791",
"h. c #7D7B94",
"j. c #75719C",
"k. c #7A769B",
"l. c #7E7B9A",
"z. c #7C79A0",
"x. c #827F8D",
"c. c #807E94",
"v. c #807E9A",
"b. c #817CA5",
"n. c #7F8187",
"m. c #84828D",
"M. c #86898A",
"N. c #8B8A8C",
"B. c #848384",
"V. c #8C9287",
"C. c #858393",
"Z. c #898695",
"A. c #8C8A94",
"S. c #85839C",
"D. c #89879C",
"F. c #8C8A9C",
"G. c #908E9B",
"H. c #949495",
"J. c #99979C",
"K. c #979B88",
"L. c #A09E9F",
"P. c #97A081",
"I. c #A6AA98",
"U. c #B2BB93",
"Y. c #8C8BA2",
"T. c #8885A6",
"R. c #918EA2",
"E. c #9492A4",
"W. c #9594A9",
"Q. c #9897AB",
"!. c #9B9AAD",
"~. c #9E9DB1",
"^. c #9591B5",
"/. c #A09EA2",
"(. c #A09FA8",
"). c #A09FB2",
"_. c #A2A1A3",
"`. c #A5A3AB",
"'. c #AAA9A9",
"]. c #A3A2B4",
"[. c #ABA9B2",
"{. c #ABAABB",
"}. c #A8A6B6",
"|. c #B4B3B3",
" X c #BCBBBC",
".X c #B6B4BB",
"XX c #B0AFB0",
"oX c #CBD89A",
"OX c #D2E58E",
"+X c #D3E39A",
"@X c #CDE183",
"#X c #DBEBA9",
"$X c #DBEBA7",
"%X c #BCBBC4",
"&X c #B4B3C2",
"*X c #C3C2C3",
"=X c #CCCCCE",
"-X c #C7C6C9",
";X c #CDCCD0",
":X c #D3D2D3",
">X c #DCDBDC",
",X c #D6D5D8",
"<X c #D0CFCF",
"1X c #E0DFDF",
"2X c #DFE0E0",
"3X c #E3E2E3",
"4X c #ECECEB",
"5X c #F4F4F4",
"6X c #FEFEFE",
"7X c #F0EFF0",
/* pixels */
"                                                                                                ",
"                                            #X#X#X#X                                            ",
"                                  +X4.,. .{ ` ` ` { [ | ,.5.$X                                  ",
"                              4.| _ ) T W ~ $.$.$.$.^ W Y ) { X.5.                              ",
"                          1.{ ) T #.*.=.C.D.T.T.Y.S.h.n.P +.! T )  .5.                          ",
"                      5. .( W +.M.j.j.z.T.n.w.w.w.w.0.f.s.f.0.C @.U ) | +X                      ",
"                    ,.( Y %.C.z.k.0.0.h.T.u.9.A z D D D D D S c 7.K L R ` 3.                    ",
"                  X.( ^ V.z.d.8.8.z S z A S F s s h N d d d h s s x c y U I <.                  ",
"                ..Y $.C.k.8.c l i i g s w d 0 4 > & & * * > > > 4 8 s k V L I 2.                ",
"              >.~ +.i.q.n l f f 0 0 r 8 , = * > e B y.N.H.H.N.K e - - q g V E I 1.              ",
"            I.+.*.w.s.9.f p 9 0 e 4 & * 8 J '.=X4X6X6X6X6X6X6X6X1X'.d = e Z J ! ) 5.            ",
"          .X=.=.u.6.D g 0 q q > # > K |.3X6X6X6X6X6X6X6X6X6X6X6X6X6X4XJ = r 9.P U ` #X          ",
"          D.m.p.7.8.Z 9 7 1 & 4 M.:X6X6X6X6X6X6X6X6X6X6X6X6X6X6X6X6X6X5XN 4 h 7.L Y X.          ",
"        `.x.c.9.S e.g 4 $ > N.>X6X6X6X6X6X6X6X6X6X6X6X6X6X6X6X6X6X6X6X6X*X> e F f.! ) OX        ",
"      :XC.C.f.c m z w ; t =X6X6X6X6X6X6X6X6X6X6X6X6X5X4X4X4X5X6X6X6X6X6X5XM 4 F h.-.Y |         ",
"      [.x.c.0.8.S 0 1 > ;X6X6X6X6X6X6X6X6X6X6X6X7X>X=X X|.*X>X5X6X6X6X6X6XM.> b t.h.~ _ OX      ",
"      A.C.g.9.f.S 0 : t 5X6X6X6X6X6X6X6X6X6X6X5X>X'.J M e e '.7X6X6X6X6X6XJ.> d F k.*._ ,.      ",
"    -Xc.C.0.9.8.f g 8 8 :X5X6X6X6X6X6X6X6X6X6X6X X1 O O O X M.6X6X6X6X6X6XH.1 M e.v.A.Q [       ",
"    [.m.n.q.6.x f F e > H.3X4X5X5X6X6X6X6X6X6X5X*X* O & o # <X6X6X6X6X5X7XJ > F p.h.l.#.] OX    ",
"    E.C.h.q.x i c D d 4 e '.-X:X2X3X6X6X6X6X5X5XI.+ + . @ XX6X6X6X6X6X5X:Xe 1 H Z.C.s.*._ 4.    ",
"    F.C.h.f.x p l D F N > 6 B.H.B.<X6X6X6X6X5X4XM X . 8 *X6X6X6X6X6X5X4X_.* 8 a.Z.G.z.P ` ,.    ",
"    Z.Z.h.q.k i g.i.p.G 6 & & @ e 4X6X6X6X6X6X*XO & H.4X6X6X6X6X6X6X4X<XM # 0 G g.n.^.V.` |     ",
"  =Xm.D.k.7.7.c h.W.E.y.r , # . _.6X6X6X6X6X6X_.J 1X6X6X6X6X6X6X6X4X>XN.- 1 0 S d.h.^.M.} [     ",
"  =Xx.F.n.c 7.c x i.D.C.s , # > 3X6X6X6X6X6X6X4X6X6X6X6X6X6X6X6X4X:XL.1 - q s u.Y.!.k.a.}  .    ",
"  =XC.D.u.k 7.c j 7.Y.G.g 2 O H 6X6X6X6X6X6X6X6X6X6X6X6X6X6X6X3X<X_.4 = 8 d l u.~.{.z.a.} [     ",
"  -Xm.Z.0.k 7.6.i x E.Z.s > @  X6X6X6X6X6X6X6X6X6X6X6X6X6X5X3X-XH.6 - w h D A g.{.).Y.M.}  .    ",
"    C.D.f.c 7.7.j 7.Y.m.s % w 5X6X6X6X6X6X6X6X6X6X6X6X5X4X:X|.J > - 8 b S e.S W.%X].^.M.{ |     ",
"    F.Z.g.6.k 6.A 0.C.a.t @ N.6X6X6X6X6X6X6X6X6X6X5X4X>X*XJ.t * > 8 s D i.7.w.}.&X{.^.:._ <.    ",
"    E.Z.h.7.v 6.x k A H 8 * ;X6X6X6X6X6X5X5X6X5X3X,X*X!.V = % 1 0 Z a.i.S.u.l.~.W.S.b.;.] 3.    ",
"    [.m.S.9.k c z k g F = M 6X6X6X6X6X4X1X,X<X-X|.H.V > @ % 4 0 h C.D.i.0.w.Q.~.W.k.S.&.( +X    ",
"    -Xc.D.f.c k 7.z q 8 * _.6X6X6X6X6X>XH.=.H.J t = + $ , w g Z h.E.S.u.0.0.W.~.Q.z.V. .{       ",
"      A.Z.l.6.k l a 9 > 3 >X6X6X6X6X5X<X5 O = % @ % ; 7 s Z x.Y.Q.Y.g.7.7.S.Q.Q.Y.b.;.] <.      ",
"      [.x.F.e.k k f q $ N 6X6X6X6X6X5XXX& @ % ; , 9 u g 7.n.^.~.S.f.6.i 0.).).!.k.n...) +X      ",
"        c.G.h.c f u , @ Q.6X6X6X6X5X4XJ @ : , 0 g Z D h.n.).].Y.w.7.c c R.{.).T.z.:.] ..        ",
"        `.x.F.8.p 2 : > <X6X6X6X6X5X:Xe & q s Z i.C.W.!.^.).Y.0.7.6.6.n.].^.Q.j.M...( oX        ",
"          m.Z.c.l 2 ; 4  X1X2X4X5X7X'.1 7 M C.E.!.).!.].&X~.n.8.q.7.s.~.~.^.n.z.>._ 2.          ",
"          %Xy.F.e.u , % 5 N.XX*X=X<XJ = s H G.].!.).}.].).W.k.0.T.E.Q.W.D.Y.d.:./ W             ",
"            (.t.C.S 9 : # $ e K N.N.5 > h r.i.Y.W.E.T.f.n.u.s.T.}.{.{.].w.0.H.&.! oX            ",
"              G.t.C.A q , % # & 4 6 4 t g g c 0.h.d.0.0.T.n.^.&X}.^.).T.w.n.K.P U.              ",
"                Z.t.C.9.u 2 , : : 4 h H p.h.h.l.n.T.~.{.&X%X&X].{.n.q.f.Y.R.n.'.                ",
"                  G.r.C.t.m 0 2 2 9 m S e.Y.W.~.!.].}.T.W.~.W.v.W.T.h.Y.F.t.}.                  ",
"                    `.r.x.D.u.n g n A c 7.u.h.h.g.u.S.S.l.7.0.0.c.R.R.x.p.%X                    ",
"                      *XZ.t.Z.F.v.c.w.9.w.7.6.6.7.6.f.v.l.f.f.D.R.Z.y.J.                        ",
"                          XXx.y.Z.R.R.F.D.v.v.c.h.l.S.D.D.R.G.C.y.Z.%X                          ",
"                              .XG.x.y.C.Z.F.Y.F.F.G.D.C.m.p.m.J.*X                              ",
"                                    .X(.G.Z.m.m.m.m.Z.J.`.%X                                    ",
"                                                                                                ",
"                                                                                                "
};
