/* XPM */
static char *_7e2d6507b40401d8f65e0023c4b12c30cuV31Zi40hLBS6G[] = {
/* columns rows colors chars-per-pixel */
"32 32 182 2 ",
"   c None",
".  c #08080B",
"X  c #0D0D10",
"o  c #18181B",
"O  c #1F1E27",
"+  c #28282E",
"@  c #202024",
"#  c #2B2A36",
"$  c #2D2C3E",
"%  c #32323C",
"&  c #3A3A3C",
"*  c #343442",
"=  c #3C3C43",
"-  c #3D3D4C",
";  c #3B3750",
":  c #44434D",
">  c #49494C",
",  c #46454B",
"<  c #454353",
"1  c #4C4C53",
"2  c #484759",
"3  c #4C4B5E",
"4  c #504F58",
"5  c #55545B",
"6  c #5B5A5E",
"7  c #58575C",
"8  c #4E4D64",
"9  c #534F69",
"0  c #535162",
"q  c #5E5E62",
"w  c #53516C",
"e  c #5D5B6D",
"r  c #4F4D72",
"t  c #514E72",
"y  c #565474",
"u  c #5D5B74",
"i  c #5C5A7C",
"p  c #585679",
"a  c #615F77",
"s  c #626265",
"d  c #66656B",
"f  c #71756E",
"g  c #656574",
"h  c #686776",
"j  c #6D6D74",
"k  c #646379",
"l  c #69667B",
"z  c #6D6B7C",
"x  c #747375",
"c  c #7C7C7D",
"v  c #7A922A",
"b  c #75873A",
"n  c #7A8C40",
"m  c #7E895F",
"M  c #7F8479",
"N  c #8FB01C",
"B  c #9ABE1A",
"V  c #839E28",
"C  c #9CBD24",
"Z  c #97B52E",
"A  c #94B327",
"S  c #8CA53C",
"D  c #8CA634",
"F  c #91AD30",
"G  c #97B338",
"H  c #9EC126",
"J  c #A6C924",
"K  c #A5C62A",
"L  c #ACCA39",
"P  c #B1CD3F",
"I  c #B6D13F",
"U  c #B0D033",
"Y  c #86994F",
"T  c #859946",
"R  c #839550",
"E  c #90A74A",
"W  c #90A452",
"Q  c #A5BE46",
"!  c #838F61",
"~  c #8D9D63",
"^  c #889469",
"/  c #899373",
"(  c #A4AB7D",
")  c #B5BC73",
"_  c #B5CF44",
"`  c #BACE4C",
"'  c #BAD248",
"]  c #BDD254",
"[  c #BFD853",
"{  c #C3D55A",
"}  c #C5DB63",
"|  c #C7E06A",
" . c #CEE57A",
".. c #615F80",
"X. c #625E8C",
"o. c #666483",
"O. c #6B6A84",
"+. c #6E6C8A",
"@. c #686589",
"#. c #716F8B",
"$. c #747284",
"%. c #7E7E81",
"&. c #74728D",
"*. c #7A778D",
"=. c #7C7A8D",
"-. c #787586",
";. c #716D93",
":. c #706B98",
">. c #767592",
",. c #787692",
"<. c #7C7B94",
"1. c #7F7D98",
"2. c #7B779C",
"3. c #7F7AA2",
"4. c #817F8E",
"5. c #817E92",
"6. c #807F99",
"7. c #807CA5",
"8. c #7F8380",
"9. c #838385",
"0. c #8D8C8E",
"q. c #85898B",
"w. c #848293",
"e. c #8C8A97",
"r. c #83829A",
"t. c #88869F",
"y. c #8A8899",
"u. c #938F95",
"i. c #939394",
"p. c #999397",
"a. c #9C9A9B",
"s. c #91929A",
"d. c #ACA49F",
"f. c #A2A498",
"g. c #8987A0",
"h. c #8E8DA3",
"j. c #8682AB",
"k. c #8C8AAA",
"l. c #8784A7",
"z. c #908FA6",
"x. c #9291A5",
"c. c #9C9BA7",
"v. c #9492A9",
"b. c #9B99AE",
"n. c #9897AC",
"m. c #8E8AB0",
"M. c #9E9DB1",
"N. c #9A97B6",
"B. c #A19EB6",
"V. c #A3A2A3",
"C. c #ABA5A5",
"Z. c #A7A4AD",
"A. c #AEABA8",
"S. c #B3ABA6",
"D. c #BEB7A6",
"F. c #BAB3AA",
"G. c #A2A1B4",
"H. c #AFAFB0",
"J. c #A8A7B9",
"K. c #AAA9BB",
"L. c #B1AFB6",
"P. c #B3B2B5",
"I. c #BCBBBD",
"U. c #B7B6BE",
"Y. c #CADC85",
"T. c #D6EB8B",
"R. c #D9EC99",
"E. c #BDBBC2",
"W. c #B7B6C6",
"Q. c #C3C2C4",
"!. c #CCCBCB",
"~. c #C5C3CA",
"^. c #CDCCD2",
"/. c #D5D4D4",
"(. c #D8D7D7",
"). c #DCDCDC",
"_. c #E0DEDE",
"`. c #E6E6E6",
"'. c #EAE9E9",
"]. c #F3F3F3",
"[. c #F8F8F7",
"{. c #FFFFFF",
/* pixels */
"                                                                ",
"                                                                ",
"                         .{ _ L L L [  .                        ",
"                  R.[ Z S Y ^ ^ / ! R D C _ R.                  ",
"                } B T / >.3.3.;.;.;.;.&.f b N `                 ",
"              U F 8.:.@.o.O.z e 3 0 3 0 8 y d v K               ",
"            Q T >.X.y 8 8 < - = > 6 s d q > ; 9 b C             ",
"          ( m #...8 < = = 7 8.P./.'.].].'.Q.c : a b K           ",
"        F.c #.o.3 * = j P.'.{.{.{.{.{.{.{.{.{.i.2 h V `         ",
"        w.+.o.e = s I.{.{.{.{.{.{.{.{.{.{.{.{.].q 9 M B         ",
"      S.*.+.u - d ].{.{.{.{.{.{.].(.I.Q.'.{.{.{.0.1 >.E `       ",
"      s.&.+.k - 9.{.{.{.{.{.{.{.Q.6 & = !.{.{.{.p.> +./ J       ",
"    ^.5.#.i u 5 6 !.[.[.{.{.{.{.f.o . > `.{.{.{.%.1 <.<.A T.    ",
"    U.<.#.t u h > s p.H.].{.{.].d . q ).{.{.{./.4 q r.2.S {     ",
"    A.=.+.y #.y.g % @ c [.{.{./.7 i.].{.{.{.].0.% e *.k.W '     ",
"    C.5.o.i @.g.%.- + Q.{.{.{.'.`.{.{.{.{.].C., - k h.l.R I     ",
"    C.*.....t 6.w.* s ].{.{.{.{.{.{.{.{.'.C.> , e *.K.m.Y _     ",
"    S.=...a p 6.$.% V.{.{.{.{.{.{.{.]./.9.= - g O.t.W.N.E `     ",
"    E.<.@.p a O.s > ).{.{.{.{.{.]./.a.7 % : h ,.&.v.B.k.G |     ",
"      y.#.p i w : x {.{.{.).I.P.0.7 % % 3 $.t.>.&.b.k.q.H       ",
"      a.<.i y 8 * H.{.{.{.V.& = # # - g w.x.<.k 1.M.j.~ U       ",
"      U.5.@.w - 1 `.{.{.[.x @ * 2 e $.x.M.<.i @.G.n.r.Z }       ",
"        s.*.w $ x [.{.{.(.4 : g w.v.G.G.2.i o.z.M.7.~ J         ",
"        ~.5.l - : i.Q._.a.- h n.G.G.G.x.+.<.z.n.l.0.Z Y.        ",
"          S.-.a * # > x 7 < l <.t.6.1.6.z.J.J.g.>.^ )           ",
"            c.x k < $ $ 5 z *.6.g.k.M.K.K.M.1.6.8.f.            ",
"              Z.=.$.u 8 u l <.g.t.z.h.r.<.g.r.4.G.              ",
"                  p.4.<.<.&.+.+.+.,.6.,.*.<.p.Q.                ",
"                    E.d.e.w.5.5.<.5.5.e.C.I.                    ",
"                          ~.L.D.D.P.Q.                          ",
"                                                                ",
"                                                                "
};
