/* XPM */
static char *d1a39f8c97f74868988c8721c721fb6394xUCiKcf5ZfzxJm[] = {
/* columns rows colors chars-per-pixel */
"16 16 143 2 ",
"   c None",
".  c #30303A",
"X  c #616F38",
"o  c #637233",
"O  c #36354E",
"+  c #383748",
"@  c #46454F",
"#  c #4E514E",
"$  c #494855",
"%  c #43415A",
"&  c #454459",
"*  c #48475A",
"=  c #48475C",
"-  c #4F4E5D",
";  c #515153",
":  c #585859",
">  c #6A7258",
",  c #474464",
"<  c #4A4965",
"1  c #4F4C6B",
"2  c #514E68",
"3  c #514D6B",
"4  c #524E6E",
"5  c #525163",
"6  c #545367",
"7  c #555466",
"8  c #595964",
"9  c #59566A",
"0  c #5E5C69",
"q  c #5D5F68",
"w  c #5E5E6D",
"e  c #585678",
"r  c #5A587B",
"t  c #5C5A7C",
"y  c #5F5D7D",
"u  c #615F76",
"i  c #646469",
"p  c #67666A",
"a  c #64646C",
"s  c #757D65",
"d  c #626071",
"f  c #666577",
"g  c #6F6E72",
"h  c #6B6A75",
"j  c #706F73",
"k  c #707074",
"l  c #707076",
"z  c #73727A",
"x  c #767679",
"c  c #859944",
"v  c #869755",
"b  c #8B9A59",
"n  c #8FA257",
"m  c #839060",
"M  c #8B9768",
"N  c #98A766",
"B  c #A7BB66",
"V  c #ABBA62",
"C  c #B0BD64",
"Z  c #B3C066",
"A  c #B2C66E",
"S  c #BEC478",
"D  c #BFD27E",
"F  c #C1C770",
"G  c #666482",
"H  c #676684",
"J  c #726F83",
"K  c #757680",
"L  c #737189",
"P  c #73708C",
"I  c #72718F",
"U  c #75738D",
"Y  c #77748F",
"T  c #78758D",
"R  c #7C798A",
"E  c #7D7C8F",
"W  c #787692",
"Q  c #7A7992",
"!  c #7F7D95",
"~  c #7E7D98",
"^  c #807D96",
"/  c #807E99",
"(  c #818581",
")  c #878788",
"_  c #8C878F",
"`  c #8B9183",
"'  c #838194",
"]  c #86849E",
"[  c #88889B",
"{  c #919193",
"}  c #97929B",
"|  c #9D9C9F",
" . c #9E9D9E",
".. c #9F9E9F",
"X. c #8987A6",
"o. c #8988A2",
"O. c #8D8CA4",
"+. c #8F8EA5",
"@. c #8985A9",
"#. c #8B88A9",
"$. c #9697A3",
"%. c #9796AD",
"&. c #9998AE",
"*. c #A09BA0",
"=. c #A69FA1",
"-. c #A19FAA",
";. c #A5A6A3",
":. c #A3A3A5",
">. c #ADA5A5",
",. c #ABABAC",
"<. c #AEAEAE",
"1. c #B0AFAF",
"2. c #B9B0A7",
"3. c #BDB1A7",
"4. c #C5B9A6",
"5. c #CBDE86",
"6. c #CBDD8C",
"7. c #CDDF8C",
"8. c #CEC4AA",
"9. c #CFC5AA",
"0. c #D7C9A5",
"q. c #D3C9AC",
"w. c #CACDBE",
"e. c #E2D8AF",
"r. c #C1BFC8",
"t. c #C4C3C3",
"y. c #C8C8C7",
"u. c #C1C0C9",
"i. c #C8C8C9",
"p. c gray79",
"a. c #D9D9D8",
"s. c gray85",
"d. c #E7E7E7",
"f. c #EAEAE9",
"g. c gray92",
"h. c #EFEFEF",
"j. c #EEEDF0",
"k. c #F4F4F4",
"l. c gray97",
"z. c #FAFAF9",
"x. c #FBFBFB",
"c. c #FEFEFE",
"v. c white",
/* pixels */
"                                ",
"          A N M m b B           ",
"      6.v q 4 3 3 9 # o D       ",
"    w.s , % z :.y.a.u.L X 7.    ",
"    ' 1 h y.z.v.v.z.v.j.d c     ",
"  r.G & <.v.v.v.) ; f.v.R > 5.  ",
"  >.t u i ..v.h.: { v.a.0 K Z   ",
"  *.r W $ x v.k.d.v.f.g 6 [ V   ",
"  =.e H 8 i.v.v.v.t.p - ! $.C   ",
"  3.u < l x.f...g @ w U @.` F   ",
"    T O ..v.,.. 5 Q / I #.n     ",
"    2.= a <.j f &.%.] X.( S     ",
"      -.* + 7 Q o.+.+.^ ;.      ",
"        4._ L I Y ! } 9.        ",
"            0.9.q.e.            ",
"                                "
};
